<svg width="500" height="500" viewBox="0 0 500 500" fill="none" xmlns="http://www.w3.org/2000/svg">
<path d="M236.565 41.435C243.985 34.0151 256.015 34.0151 263.435 41.435L294.435 72.435C297.998 75.9982 300 80.8309 300 85.8701V414.13C300 419.169 297.998 424.002 294.435 427.565L263.435 458.565C256.015 465.985 243.985 465.985 236.565 458.565L205.565 427.565C202.002 424.002 200 419.169 200 414.13V85.87C200 80.8309 202.002 75.9982 205.565 72.435L236.565 41.435Z" fill="#D9D9D9"/>
<mask id="mask0_2_5" style="mask-type:alpha" maskUnits="userSpaceOnUse" x="200" y="0" width="100" height="500">
<path d="M250 0L300 50V450L250 500L200 450L200 50L250 0Z" fill="white"/>
</mask>
<g mask="url(#mask0_2_5)">
<rect x="101" y="311.032" width="314" height="81.7406" transform="rotate(-45 101 311.032)" fill="#AFAFAF"/>
<rect x="154.879" y="388.911" width="314" height="31" transform="rotate(-45 154.879 388.911)" fill="#AFAFAF"/>
</g>
</svg>
