<svg width="500" height="500" viewBox="0 0 500 500" fill="none" xmlns="http://www.w3.org/2000/svg">
<path d="M239.494 43.3115C241.816 35.6557 250.837 32.3723 257.536 36.7447L293.127 59.9727C295.302 61.3918 296.957 63.4778 297.845 65.9176L349.943 209.056L332.549 266.414C332.489 266.61 332.341 266.766 332.149 266.836L281.74 233.937C279.566 232.518 277.91 230.432 277.022 227.993L227.368 91.5692C226.48 89.1293 226.407 86.4672 227.161 83.9825L239.494 43.3115Z" fill="#847E87"/>
<path d="M258.536 461.898C251.837 466.27 242.815 462.987 240.494 455.331L228.161 414.659C227.407 412.175 227.48 409.513 228.368 407.073L279.097 267.695C279.986 265.255 281.641 263.169 283.815 261.75L330.932 231C331.124 231.07 331.272 231.227 331.332 231.422L349.867 292.543L298.845 432.725C297.957 435.165 296.301 437.251 294.127 438.67L258.536 461.898Z" fill="#847E87"/>
<mask id="mask0_9_108" style="mask-type:alpha" maskUnits="userSpaceOnUse" x="226" y="34" width="125" height="233">
<path d="M239.644 43.2101C241.973 35.5869 250.951 32.3122 257.642 36.645L293.715 60.0043C295.898 61.4179 297.562 63.5025 298.458 65.9442L351 209.18L333.458 266.575C333.398 266.773 333.248 266.93 333.054 267L282.2 234.069C280.017 232.655 278.353 230.571 277.457 228.129L227.388 91.6361C226.488 89.1804 226.414 86.4976 227.178 83.9961L239.644 43.2101Z" fill="#847E87"/>
</mask>
<g mask="url(#mask0_9_108)">
<path d="M259.536 461.898C252.837 466.27 243.815 462.987 241.494 455.331L229.161 414.659C228.407 412.175 228.48 409.513 229.368 407.073L280.097 267.695C280.986 265.255 282.641 263.169 284.815 261.75L331.932 231C332.124 231.07 332.272 231.227 332.332 231.422L350.867 292.543L299.845 432.725C298.957 435.165 297.301 437.251 295.127 438.67L259.536 461.898Z" fill="#847E87"/>
<rect x="286.604" y="258.027" width="275.695" height="28.1647" transform="rotate(-110 286.604 258.027)" fill="#E9B05A"/>
</g>
<mask id="mask1_9_108" style="mask-type:alpha" maskUnits="userSpaceOnUse" x="227" y="231" width="123" height="233">
<path d="M258.536 461.898C251.837 466.27 242.815 462.987 240.494 455.331L228.161 414.659C227.407 412.175 227.48 409.513 228.368 407.073L279.097 267.695C279.986 265.255 281.641 263.169 283.815 261.75L330.932 231C331.124 231.07 331.272 231.227 331.332 231.422L349.867 292.543L298.845 432.725C297.957 435.165 296.301 437.251 294.127 438.67L258.536 461.898Z" fill="#847E87"/>
</mask>
<g mask="url(#mask1_9_108)">
<rect x="-2" y="460.229" width="306.828" height="223.618" transform="rotate(-70 -2 460.229)" fill="#E9B05A"/>
</g>
</svg>
